{
    "asset" : {
        "generator" : "Khronos glTF Blender I/O v0.9.36",
        "version" : "2.0"
    },
    "scene" : 0,
    "scenes" : [
        {
            "name" : "Scene",
            "nodes" : [
                0,
                1,
                4
            ]
        }
    ],
    "nodes" : [
        {
            "name" : "Light",
            "rotation" : [
                0.16907575726509094,
                0.7558803558349609,
                -0.27217137813568115,
                0.570947527885437
            ],
            "translation" : [
                4.076245307922363,
                5.903861999511719,
                -1.0054539442062378
            ]
        },
        {
            "name" : "Camera",
            "rotation" : [
                0.483536034822464,
                0.33687159419059753,
                -0.20870360732078552,
                0.7804827094078064
            ],
            "translation" : [
                7.358891487121582,
                4.958309173583984,
                6.925790786743164
            ]
        },
        {
            "mesh" : 0,
            "name" : "desk_3.001",
            "scale" : [
                0.010126149281859398,
                0.010126149281859398,
                0.010126149281859398
            ],
            "translation" : [
                -8.138392149703577e-05,
                0,
                0.5678900480270386
            ]
        },
        {
            "children" : [
                2
            ],
            "name" : "desk_3"
        },
        {
            "children" : [
                3
            ],
            "name" : "root",
            "rotation" : [
                0.7071068286895752,
                0,
                0,
                0.7071067094802856
            ],
            "scale" : [
                63.99034118652344,
                63.99034881591797,
                63.99034881591797
            ],
            "translation" : [
                0.00551605224609375,
                36.710662841796875,
                0.002228901255875826
            ]
        }
    ],
    "materials" : [
        {
            "name" : "lambert1",
            "normalTexture" : {
                "index" : 0,
                "texCoord" : 0
            },
            "occlusionTexture" : {
                "index" : 1,
                "texCoord" : 0
            },
            "pbrMetallicRoughness" : {
                "baseColorTexture" : {
                    "index" : 2,
                    "texCoord" : 0
                },
                "metallicRoughnessTexture" : {
                    "index" : 1,
                    "texCoord" : 0
                }
            }
        }
    ],
    "meshes" : [
        {
            "name" : "desk_3",
            "primitives" : [
                {
                    "attributes" : {
                        "POSITION" : 0,
                        "NORMAL" : 1,
                        "TEXCOORD_0" : 2
                    },
                    "indices" : 3,
                    "material" : 0
                }
            ]
        }
    ],
    "textures" : [
        {
            "source" : 0
        },
        {
            "source" : 1
        },
        {
            "source" : 2
        }
    ],
    "images" : [
        {
            "mimeType" : "image/png",
            "name" : "Image_2",
            "uri" : "Image_2.png"
        },
        {
            "mimeType" : "image/png",
            "name" : "Image_1",
            "uri" : "Image_1.png"
        },
        {
            "mimeType" : "image/png",
            "name" : "Image_0",
            "uri" : "Image_0.png"
        }
    ],
    "accessors" : [
        {
            "bufferView" : 0,
            "componentType" : 5126,
            "count" : 10431,
            "max" : [
                1,
                0.5952008962631226,
                0.5728369951248169
            ],
            "min" : [
                -0.9999999403953552,
                -0.5952009558677673,
                -0.5728369355201721
            ],
            "type" : "VEC3"
        },
        {
            "bufferView" : 1,
            "componentType" : 5126,
            "count" : 10431,
            "type" : "VEC3"
        },
        {
            "bufferView" : 2,
            "componentType" : 5126,
            "count" : 10431,
            "type" : "VEC2"
        },
        {
            "bufferView" : 3,
            "componentType" : 5123,
            "count" : 41688,
            "type" : "SCALAR"
        }
    ],
    "bufferViews" : [
        {
            "buffer" : 0,
            "byteLength" : 125172,
            "byteOffset" : 0
        },
        {
            "buffer" : 0,
            "byteLength" : 125172,
            "byteOffset" : 125172
        },
        {
            "buffer" : 0,
            "byteLength" : 83448,
            "byteOffset" : 250344
        },
        {
            "buffer" : 0,
            "byteLength" : 83376,
            "byteOffset" : 333792
        }
    ],
    "buffers" : [
        {
            "byteLength" : 417168,
            "uri" : "desk.bin"
        }
    ]
}
